<svg xmlns="http://www.w3.org/2000/svg" viewBox="0 0 135.42 135.42"><defs><style>.cls-1{fill:#064469;}</style></defs><g id="Camada_2" data-name="Camada 2"><g id="Camada_1-2" data-name="Camada 1"><path class="cls-1" d="M23.19,110.89c-8-4.2-14-10.23-17.19-18.56A82.11,82.11,0,0,1,1.87,78.6a93.53,93.53,0,0,1,1.8-44.66C5.8,26.66,9,19.9,14.91,14.73a48.74,48.74,0,0,1,16.17-9C45.61.53,60.66-.56,75.93.23a98.75,98.75,0,0,1,28.68,5.5,49.48,49.48,0,0,1,15.64,8.71c6.11,5.22,9.37,12.11,11.58,19.55a93.91,93.91,0,0,1,3,36.8,85.49,85.49,0,0,1-4,18.41c-4,11.79-12.09,19.48-23.65,24-11,4.3-22.36,6.11-34,6.58-1.11,0-2.22.09-3.33.07a10.41,10.41,0,0,0-6.22,2c-5.71,3.85-11.45,7.67-17.28,11.35a13.5,13.5,0,0,1-20.81-9.09c-.55-3.08-1-6.16-1.57-9.24C23.68,113.57,23.44,112.3,23.19,110.89ZM94.8,60c0-6.77,0-13.54,0-20.31a6.72,6.72,0,0,0-13.42,0c0,13.49-.06,27,.05,40.47a7.37,7.37,0,0,0,1.52,4,6.69,6.69,0,0,0,11.86-4C94.83,73.48,94.8,66.76,94.8,60Zm-40.65,0h0c0-4.21,0-8.42,0-12.64a10,10,0,0,0-.27-2.62,6.65,6.65,0,0,0-7.41-4.73,6.49,6.49,0,0,0-5.77,6.41c-.06,9,0,18,0,27a6,6,0,0,0,.24,1.69A6.77,6.77,0,0,0,48.06,80a6.54,6.54,0,0,0,6.07-6.32C54.22,69.12,54.15,64.59,54.15,60.06ZM61,59.78c0,2.34,0,4.68,0,7a6.72,6.72,0,0,0,13.44,0q.12-6.78,0-13.58a6.72,6.72,0,0,0-13.44,0C61,55.41,61,57.59,61,59.78Zm54.1.3c0-1.24,0-2.49,0-3.74a6.73,6.73,0,0,0-13.43,0c-.08,2.44-.08,4.89,0,7.33a6.73,6.73,0,0,0,13.43,0C115.16,62.48,115.11,61.28,115.11,60.08ZM33.82,60c0-1,0-2,0-3A6.72,6.72,0,0,0,20.4,57q-.13,3,0,5.94a6.73,6.73,0,0,0,13.42-.06C33.87,61.93,33.83,60.94,33.82,60Z"/></g></g></svg>