<svg xmlns="http://www.w3.org/2000/svg" viewBox="0 0 244.39 208.12"><defs><style>.cls-1{fill:#9dcfdc;}</style></defs><g id="Camada_2" data-name="Camada 2"><g id="Camada_1-2" data-name="Camada 1"><path class="cls-1" d="M77.68,110.89c-8-4.2-14-10.23-17.2-18.56A83,83,0,0,1,56.36,78.6a93.53,93.53,0,0,1,1.79-44.66c2.14-7.28,5.35-14,11.25-19.21a48.79,48.79,0,0,1,16.16-9C100.09.53,115.15-.56,130.42.23a98.81,98.81,0,0,1,28.68,5.5,49.48,49.48,0,0,1,15.64,8.71c6.11,5.22,9.37,12.11,11.58,19.55a94.1,94.1,0,0,1,3,36.8,84.92,84.92,0,0,1-4,18.41c-3.95,11.79-12.09,19.48-23.65,24-10.94,4.3-22.35,6.11-34,6.58-1.11,0-2.23.09-3.33.07a10.39,10.39,0,0,0-6.22,2c-5.72,3.85-11.45,7.67-17.28,11.35A13.5,13.5,0,0,1,80,124.09c-.55-3.08-1-6.16-1.58-9.24C78.17,113.57,77.93,112.3,77.68,110.89ZM149.28,60c0-6.77.06-13.54,0-20.31a6.72,6.72,0,0,0-13.42,0q-.09,20.24,0,40.47a7.37,7.37,0,0,0,1.52,4,6.69,6.69,0,0,0,11.85-4C149.32,73.48,149.28,66.76,149.28,60Zm-40.64,0h0c0-4.21,0-8.42,0-12.64a10,10,0,0,0-.27-2.62A6.65,6.65,0,0,0,101,40.07a6.49,6.49,0,0,0-5.76,6.41c-.06,9,0,18,0,27a6,6,0,0,0,.24,1.69A6.77,6.77,0,0,0,102.54,80a6.54,6.54,0,0,0,6.08-6.32C108.71,69.12,108.64,64.59,108.64,60.06Zm6.86-.28c0,2.34-.06,4.68,0,7a6.72,6.72,0,0,0,13.44,0c.08-4.52.07-9.05,0-13.58a6.72,6.72,0,0,0-13.44,0C115.45,55.41,115.49,57.59,115.5,59.78Zm54.1.3c0-1.24.05-2.49,0-3.74a6.73,6.73,0,0,0-13.43,0c-.09,2.44-.09,4.89,0,7.33a6.73,6.73,0,0,0,13.43,0C169.65,62.48,169.6,61.28,169.6,60.08ZM88.31,60c0-1,0-2,0-3A6.72,6.72,0,0,0,74.89,57c-.09,2-.1,4,0,5.94a6.73,6.73,0,0,0,13.41-.06C88.36,61.93,88.31,60.94,88.31,60Z"/><path class="cls-1" d="M31.93,163.1l-5.59,6.62c-2.07-1.8-4.07-3-6.55-3-4.55,0-7.1,4.21-7.1,16.14s2.62,16.06,7.1,16.06c2.9,0,4.76-1.51,7.17-3.51l5.38,6.48a18.47,18.47,0,0,1-13.72,6.27c-11,0-18.62-8-18.62-25.3,0-16.83,7.86-25.1,18.83-25.1A18.33,18.33,0,0,1,31.93,163.1Z"/><path class="cls-1" d="M63.72,188.54c0,12.76-6.07,19.58-15.79,19.58s-15.72-6.2-15.72-19.65c0-12.89,6.06-19.58,15.79-19.58C57.51,168.89,63.72,175,63.72,188.54Zm-19.52-.07c0,8.62,1.11,11.17,3.73,11.17s3.79-2.69,3.79-11.1-1.1-11.1-3.72-11.1S44.2,180.13,44.2,188.47Z"/><path class="cls-1" d="M95.92,179.3v27.58H84.2V180.47c0-1.86-.55-2.69-1.38-2.69-1.1,0-2.21,1.45-3.52,3.73v25.37H67.58V170.13H77.79l.82,4.07c2.42-3.52,5-5.31,9-5.31C92.75,168.89,95.92,173,95.92,179.3Z"/><path class="cls-1" d="M120.13,206.88H106.34l-9.17-36.75h12l4.07,28.06,4.42-28.06H129Z"/><path class="cls-1" d="M159.16,191.92H140.75c.41,6.41,2.48,7.79,5.58,7.79,2.55,0,4.62-1,7.24-3l4.69,6.2a17.68,17.68,0,0,1-12.82,5.17c-11,0-16.35-7.65-16.35-19.44s5.11-19.79,15.31-19.79c9,0,15,6.2,15,19A38.38,38.38,0,0,1,159.16,191.92ZM148,184.61c0-5.52-.69-8.21-3.45-8.21-2.34,0-3.58,1.73-3.86,8.69H148Z"/><path class="cls-1" d="M184.81,169.65l-1.93,11.24a7.91,7.91,0,0,0-2.62-.42c-3.58,0-4.76,3.38-5.58,7.59v18.82H163V170.13h10.21l.83,5.93c1.58-4.34,4.06-7,7.86-7A6.77,6.77,0,0,1,184.81,169.65Z"/><path class="cls-1" d="M209.84,173.44l-4.13,6.27a12.16,12.16,0,0,0-6.62-2.55c-1.93,0-3,1-3,2.55,0,1.8.83,2.62,6.07,4.83C207.91,187,211,190,211,195.92c0,7.51-5.93,12.2-14.55,12.2A18.59,18.59,0,0,1,183,202.61l5.38-6c2.28,1.79,4.9,3.38,7.45,3.38,2.07,0,3.31-1.18,3.31-3,0-2.27-1-3.31-5.79-5.31-6.21-2.55-8.76-5.65-8.76-11.1,0-6.62,4.62-11.72,13.31-11.72A17.19,17.19,0,0,1,209.84,173.44Z"/><path class="cls-1" d="M244.39,188.54c0,12.76-6.06,19.58-15.79,19.58-9.58,0-15.72-6.2-15.72-19.65,0-12.89,6.07-19.58,15.79-19.58C238.19,168.89,244.39,175,244.39,188.54Zm-19.51-.07c0,8.62,1.1,11.17,3.72,11.17s3.8-2.69,3.8-11.1-1.11-11.1-3.73-11.1S224.88,180.13,224.88,188.47Z"/></g></g></svg>